<mxfile host="app.diagrams.net" modified="2022-03-02T18:27:32.449Z" agent="5.0 (Windows NT 10.0; Win64; x64) AppleWebKit/537.36 (KHTML, like Gecko) Chrome/98.0.4758.102 Safari/537.36" etag="yCjZH8irFwInBVsEZLnm" version="16.6.3" type="github">
  <diagram id="DWscqYTxevgceBQovHET" name="Page-1">
    <mxGraphModel dx="2557" dy="965" grid="1" gridSize="10" guides="1" tooltips="1" connect="1" arrows="1" fold="1" page="1" pageScale="1" pageWidth="827" pageHeight="1169" math="0" shadow="0">
      <root>
        <mxCell id="0" />
        <mxCell id="1" parent="0" />
        <mxCell id="gd8OF8IGJQvcCedGKsRl-1" style="edgeStyle=orthogonalEdgeStyle;rounded=0;orthogonalLoop=1;jettySize=auto;html=1;entryX=0.5;entryY=0;entryDx=0;entryDy=0;fontFamily=Helvetica;fontSize=12;fontColor=default;" edge="1" parent="1" source="gd8OF8IGJQvcCedGKsRl-2" target="gd8OF8IGJQvcCedGKsRl-71">
          <mxGeometry relative="1" as="geometry">
            <Array as="points">
              <mxPoint x="228" y="790" />
              <mxPoint x="-30" y="790" />
              <mxPoint x="-30" y="1010" />
            </Array>
          </mxGeometry>
        </mxCell>
        <mxCell id="gd8OF8IGJQvcCedGKsRl-2" value="Participant" style="swimlane;fontStyle=1;align=center;verticalAlign=top;childLayout=stackLayout;horizontal=1;startSize=26;horizontalStack=0;resizeParent=1;resizeLast=0;collapsible=1;marginBottom=0;rounded=0;shadow=0;strokeWidth=1;" vertex="1" parent="1">
          <mxGeometry x="43" y="552" width="370" height="216" as="geometry">
            <mxRectangle x="230" y="140" width="160" height="26" as="alternateBounds" />
          </mxGeometry>
        </mxCell>
        <mxCell id="gd8OF8IGJQvcCedGKsRl-3" value="# identifiant : String" style="text;align=left;verticalAlign=top;spacingLeft=4;spacingRight=4;overflow=hidden;rotatable=0;points=[[0,0.5],[1,0.5]];portConstraint=eastwest;glass=0;shadow=0;sketch=0;" vertex="1" parent="gd8OF8IGJQvcCedGKsRl-2">
          <mxGeometry y="26" width="370" height="26" as="geometry" />
        </mxCell>
        <mxCell id="gd8OF8IGJQvcCedGKsRl-4" value="# motDePasse : String" style="text;align=left;verticalAlign=top;spacingLeft=4;spacingRight=4;overflow=hidden;rotatable=0;points=[[0,0.5],[1,0.5]];portConstraint=eastwest;rounded=0;shadow=0;html=0;" vertex="1" parent="gd8OF8IGJQvcCedGKsRl-2">
          <mxGeometry y="52" width="370" height="26" as="geometry" />
        </mxCell>
        <mxCell id="gd8OF8IGJQvcCedGKsRl-5" value="#profil : String" style="text;align=left;verticalAlign=top;spacingLeft=4;spacingRight=4;overflow=hidden;rotatable=0;points=[[0,0.5],[1,0.5]];portConstraint=eastwest;rounded=0;shadow=0;html=0;" vertex="1" parent="gd8OF8IGJQvcCedGKsRl-2">
          <mxGeometry y="78" width="370" height="26" as="geometry" />
        </mxCell>
        <mxCell id="gd8OF8IGJQvcCedGKsRl-6" value="" style="line;html=1;strokeWidth=1;align=left;verticalAlign=middle;spacingTop=-1;spacingLeft=3;spacingRight=3;rotatable=0;labelPosition=right;points=[];portConstraint=eastwest;" vertex="1" parent="gd8OF8IGJQvcCedGKsRl-2">
          <mxGeometry y="104" width="370" height="8" as="geometry" />
        </mxCell>
        <mxCell id="gd8OF8IGJQvcCedGKsRl-7" value="- Participant (identifiant : String, motDePasse : String , profil : String)" style="text;align=left;verticalAlign=top;spacingLeft=4;spacingRight=4;overflow=hidden;rotatable=0;points=[[0,0.5],[1,0.5]];portConstraint=eastwest;labelBackgroundColor=#FFFFFF;" vertex="1" parent="gd8OF8IGJQvcCedGKsRl-2">
          <mxGeometry y="112" width="370" height="28" as="geometry" />
        </mxCell>
        <mxCell id="gd8OF8IGJQvcCedGKsRl-8" value="" style="endArrow=block;endSize=10;endFill=0;shadow=0;strokeWidth=1;rounded=0;edgeStyle=elbowEdgeStyle;elbow=vertical;entryX=0.5;entryY=1;entryDx=0;entryDy=0;" edge="1" parent="1" target="gd8OF8IGJQvcCedGKsRl-2">
          <mxGeometry width="160" relative="1" as="geometry">
            <mxPoint x="60" y="852" as="sourcePoint" />
            <mxPoint x="200" y="735" as="targetPoint" />
            <Array as="points">
              <mxPoint x="250" y="822" />
              <mxPoint x="250" y="810" />
            </Array>
          </mxGeometry>
        </mxCell>
        <mxCell id="gd8OF8IGJQvcCedGKsRl-9" value="" style="endArrow=block;endSize=10;endFill=0;shadow=0;strokeWidth=1;rounded=0;edgeStyle=elbowEdgeStyle;elbow=vertical;exitX=0.566;exitY=0.006;exitDx=0;exitDy=0;exitPerimeter=0;entryX=0.5;entryY=1;entryDx=0;entryDy=0;" edge="1" parent="1" source="gd8OF8IGJQvcCedGKsRl-32" target="gd8OF8IGJQvcCedGKsRl-2">
          <mxGeometry width="160" relative="1" as="geometry">
            <mxPoint x="250.00000000000023" y="852" as="sourcePoint" />
            <mxPoint x="310" y="803" as="targetPoint" />
            <Array as="points">
              <mxPoint x="240" y="822" />
              <mxPoint x="250" y="782" />
              <mxPoint x="270" y="782" />
              <mxPoint x="225" y="802" />
              <mxPoint x="300" y="812" />
            </Array>
          </mxGeometry>
        </mxCell>
        <mxCell id="gd8OF8IGJQvcCedGKsRl-10" value="Personne morale" style="swimlane;fontStyle=0;align=center;verticalAlign=top;childLayout=stackLayout;horizontal=1;startSize=26;horizontalStack=0;resizeParent=1;resizeLast=0;collapsible=1;marginBottom=0;rounded=0;shadow=0;strokeWidth=1;" vertex="1" parent="1">
          <mxGeometry x="667" y="550" width="160" height="220" as="geometry">
            <mxRectangle x="550" y="140" width="160" height="26" as="alternateBounds" />
          </mxGeometry>
        </mxCell>
        <mxCell id="gd8OF8IGJQvcCedGKsRl-11" value="- nom : String" style="text;align=left;verticalAlign=top;spacingLeft=4;spacingRight=4;overflow=hidden;rotatable=0;points=[[0,0.5],[1,0.5]];portConstraint=eastwest;" vertex="1" parent="gd8OF8IGJQvcCedGKsRl-10">
          <mxGeometry y="26" width="160" height="26" as="geometry" />
        </mxCell>
        <mxCell id="gd8OF8IGJQvcCedGKsRl-12" value="- prénom : String" style="text;align=left;verticalAlign=top;spacingLeft=4;spacingRight=4;overflow=hidden;rotatable=0;points=[[0,0.5],[1,0.5]];portConstraint=eastwest;rounded=0;shadow=0;html=0;" vertex="1" parent="gd8OF8IGJQvcCedGKsRl-10">
          <mxGeometry y="52" width="160" height="26" as="geometry" />
        </mxCell>
        <mxCell id="gd8OF8IGJQvcCedGKsRl-13" value="- dateDeNaissance : String" style="text;align=left;verticalAlign=top;spacingLeft=4;spacingRight=4;overflow=hidden;rotatable=0;points=[[0,0.5],[1,0.5]];portConstraint=eastwest;rounded=0;shadow=0;html=0;" vertex="1" parent="gd8OF8IGJQvcCedGKsRl-10">
          <mxGeometry y="78" width="160" height="26" as="geometry" />
        </mxCell>
        <mxCell id="gd8OF8IGJQvcCedGKsRl-14" value="" style="line;html=1;strokeWidth=1;align=left;verticalAlign=middle;spacingTop=-1;spacingLeft=3;spacingRight=3;rotatable=0;labelPosition=right;points=[];portConstraint=eastwest;" vertex="1" parent="gd8OF8IGJQvcCedGKsRl-10">
          <mxGeometry y="104" width="160" height="8" as="geometry" />
        </mxCell>
        <mxCell id="gd8OF8IGJQvcCedGKsRl-15" value="+PersonneMorale()" style="text;align=left;verticalAlign=top;spacingLeft=4;spacingRight=4;overflow=hidden;rotatable=0;points=[[0,0.5],[1,0.5]];portConstraint=eastwest;" vertex="1" parent="gd8OF8IGJQvcCedGKsRl-10">
          <mxGeometry y="112" width="160" height="26" as="geometry" />
        </mxCell>
        <mxCell id="gd8OF8IGJQvcCedGKsRl-16" value="VIP" style="swimlane;fontStyle=1;align=center;verticalAlign=top;childLayout=stackLayout;horizontal=1;startSize=26;horizontalStack=0;resizeParent=1;resizeParentMax=0;resizeLast=0;collapsible=1;marginBottom=0;" vertex="1" parent="1">
          <mxGeometry x="333.5" y="852" width="160" height="140" as="geometry" />
        </mxCell>
        <mxCell id="gd8OF8IGJQvcCedGKsRl-17" value="+ field: type" style="text;strokeColor=none;fillColor=none;align=left;verticalAlign=top;spacingLeft=4;spacingRight=4;overflow=hidden;rotatable=0;points=[[0,0.5],[1,0.5]];portConstraint=eastwest;" vertex="1" parent="gd8OF8IGJQvcCedGKsRl-16">
          <mxGeometry y="26" width="160" height="34" as="geometry" />
        </mxCell>
        <mxCell id="gd8OF8IGJQvcCedGKsRl-18" value="" style="line;strokeWidth=1;fillColor=none;align=left;verticalAlign=middle;spacingTop=-1;spacingLeft=3;spacingRight=3;rotatable=0;labelPosition=right;points=[];portConstraint=eastwest;" vertex="1" parent="gd8OF8IGJQvcCedGKsRl-16">
          <mxGeometry y="60" width="160" height="8" as="geometry" />
        </mxCell>
        <mxCell id="gd8OF8IGJQvcCedGKsRl-19" value="+Vip()" style="text;strokeColor=none;fillColor=none;align=left;verticalAlign=top;spacingLeft=4;spacingRight=4;overflow=hidden;rotatable=0;points=[[0,0.5],[1,0.5]];portConstraint=eastwest;" vertex="1" parent="gd8OF8IGJQvcCedGKsRl-16">
          <mxGeometry y="68" width="160" height="72" as="geometry" />
        </mxCell>
        <mxCell id="gd8OF8IGJQvcCedGKsRl-20" value="Délégation" style="swimlane;fontStyle=1;align=center;verticalAlign=top;childLayout=stackLayout;horizontal=1;startSize=26;horizontalStack=0;resizeParent=1;resizeParentMax=0;resizeLast=0;collapsible=1;marginBottom=0;labelBackgroundColor=#FFFFFF;fontFamily=Helvetica;fontSize=12;fontColor=default;fillColor=none;gradientColor=none;" vertex="1" parent="1">
          <mxGeometry x="520" y="852" width="160" height="140" as="geometry" />
        </mxCell>
        <mxCell id="gd8OF8IGJQvcCedGKsRl-21" value="-pays : String" style="text;strokeColor=none;fillColor=none;align=left;verticalAlign=top;spacingLeft=4;spacingRight=4;overflow=hidden;rotatable=0;points=[[0,0.5],[1,0.5]];portConstraint=eastwest;labelBackgroundColor=#FFFFFF;fontFamily=Helvetica;fontSize=12;fontColor=default;" vertex="1" parent="gd8OF8IGJQvcCedGKsRl-20">
          <mxGeometry y="26" width="160" height="26" as="geometry" />
        </mxCell>
        <mxCell id="gd8OF8IGJQvcCedGKsRl-22" value="-nbPersonne : int" style="text;strokeColor=none;fillColor=none;align=left;verticalAlign=top;spacingLeft=4;spacingRight=4;overflow=hidden;rotatable=0;points=[[0,0.5],[1,0.5]];portConstraint=eastwest;labelBackgroundColor=#FFFFFF;fontFamily=Helvetica;fontSize=12;fontColor=default;" vertex="1" parent="gd8OF8IGJQvcCedGKsRl-20">
          <mxGeometry y="52" width="160" height="26" as="geometry" />
        </mxCell>
        <mxCell id="gd8OF8IGJQvcCedGKsRl-23" value="" style="line;strokeWidth=1;fillColor=none;align=left;verticalAlign=middle;spacingTop=-1;spacingLeft=3;spacingRight=3;rotatable=0;labelPosition=right;points=[];portConstraint=eastwest;labelBackgroundColor=#FFFFFF;fontFamily=Helvetica;fontSize=12;fontColor=default;" vertex="1" parent="gd8OF8IGJQvcCedGKsRl-20">
          <mxGeometry y="78" width="160" height="8" as="geometry" />
        </mxCell>
        <mxCell id="gd8OF8IGJQvcCedGKsRl-24" value="+ Délégation()" style="text;strokeColor=none;fillColor=none;align=left;verticalAlign=top;spacingLeft=4;spacingRight=4;overflow=hidden;rotatable=0;points=[[0,0.5],[1,0.5]];portConstraint=eastwest;labelBackgroundColor=#FFFFFF;fontFamily=Helvetica;fontSize=12;fontColor=default;" vertex="1" parent="gd8OF8IGJQvcCedGKsRl-20">
          <mxGeometry y="86" width="160" height="54" as="geometry" />
        </mxCell>
        <mxCell id="gd8OF8IGJQvcCedGKsRl-25" value="Famille d&#39;accueil" style="swimlane;fontStyle=1;align=center;verticalAlign=top;childLayout=stackLayout;horizontal=1;startSize=26;horizontalStack=0;resizeParent=1;resizeParentMax=0;resizeLast=0;collapsible=1;marginBottom=0;labelBackgroundColor=#FFFFFF;fontFamily=Helvetica;fontSize=12;fontColor=default;fillColor=none;gradientColor=none;" vertex="1" parent="1">
          <mxGeometry x="720" y="852" width="160" height="140" as="geometry" />
        </mxCell>
        <mxCell id="gd8OF8IGJQvcCedGKsRl-26" value="- adresse : String" style="text;strokeColor=none;fillColor=none;align=left;verticalAlign=top;spacingLeft=4;spacingRight=4;overflow=hidden;rotatable=0;points=[[0,0.5],[1,0.5]];portConstraint=eastwest;labelBackgroundColor=#FFFFFF;fontFamily=Helvetica;fontSize=12;fontColor=default;" vertex="1" parent="gd8OF8IGJQvcCedGKsRl-25">
          <mxGeometry y="26" width="160" height="26" as="geometry" />
        </mxCell>
        <mxCell id="gd8OF8IGJQvcCedGKsRl-27" value="- nbPlace : int" style="text;strokeColor=none;fillColor=none;align=left;verticalAlign=top;spacingLeft=4;spacingRight=4;overflow=hidden;rotatable=0;points=[[0,0.5],[1,0.5]];portConstraint=eastwest;labelBackgroundColor=#FFFFFF;fontFamily=Helvetica;fontSize=12;fontColor=default;" vertex="1" parent="gd8OF8IGJQvcCedGKsRl-25">
          <mxGeometry y="52" width="160" height="26" as="geometry" />
        </mxCell>
        <mxCell id="gd8OF8IGJQvcCedGKsRl-28" value="" style="line;strokeWidth=1;fillColor=none;align=left;verticalAlign=middle;spacingTop=-1;spacingLeft=3;spacingRight=3;rotatable=0;labelPosition=right;points=[];portConstraint=eastwest;labelBackgroundColor=#FFFFFF;fontFamily=Helvetica;fontSize=12;fontColor=default;" vertex="1" parent="gd8OF8IGJQvcCedGKsRl-25">
          <mxGeometry y="78" width="160" height="8" as="geometry" />
        </mxCell>
        <mxCell id="gd8OF8IGJQvcCedGKsRl-29" value="+ FamilleDaccueil()" style="text;strokeColor=none;fillColor=none;align=left;verticalAlign=top;spacingLeft=4;spacingRight=4;overflow=hidden;rotatable=0;points=[[0,0.5],[1,0.5]];portConstraint=eastwest;labelBackgroundColor=#FFFFFF;fontFamily=Helvetica;fontSize=12;fontColor=default;" vertex="1" parent="gd8OF8IGJQvcCedGKsRl-25">
          <mxGeometry y="86" width="160" height="54" as="geometry" />
        </mxCell>
        <mxCell id="gd8OF8IGJQvcCedGKsRl-30" value="" style="endArrow=block;endSize=10;endFill=0;shadow=0;strokeWidth=1;rounded=0;edgeStyle=elbowEdgeStyle;elbow=vertical;exitX=0.5;exitY=0;exitDx=0;exitDy=0;entryX=0.5;entryY=1;entryDx=0;entryDy=0;" edge="1" parent="1" source="gd8OF8IGJQvcCedGKsRl-20" target="gd8OF8IGJQvcCedGKsRl-2">
          <mxGeometry width="160" relative="1" as="geometry">
            <mxPoint x="460" y="852" as="sourcePoint" />
            <mxPoint x="250" y="768" as="targetPoint" />
            <Array as="points">
              <mxPoint x="300" y="822" />
              <mxPoint x="370" y="812" />
              <mxPoint x="350" y="822" />
              <mxPoint x="410" y="822" />
              <mxPoint x="366.5" y="812" />
              <mxPoint x="356.5" y="802" />
              <mxPoint x="396.5" y="812" />
              <mxPoint x="456.5" y="842" />
            </Array>
          </mxGeometry>
        </mxCell>
        <mxCell id="gd8OF8IGJQvcCedGKsRl-31" value="" style="endArrow=block;endSize=10;endFill=0;shadow=0;strokeWidth=1;rounded=0;edgeStyle=elbowEdgeStyle;elbow=vertical;exitX=0.5;exitY=0;exitDx=0;exitDy=0;entryX=0.5;entryY=1;entryDx=0;entryDy=0;" edge="1" parent="1" source="gd8OF8IGJQvcCedGKsRl-25" target="gd8OF8IGJQvcCedGKsRl-2">
          <mxGeometry width="160" relative="1" as="geometry">
            <mxPoint x="623" y="852" as="sourcePoint" />
            <mxPoint x="250" y="768" as="targetPoint" />
            <Array as="points">
              <mxPoint x="390" y="822" />
              <mxPoint x="600" y="812" />
              <mxPoint x="389.5" y="812" />
              <mxPoint x="379.5" y="802" />
              <mxPoint x="419.5" y="812" />
              <mxPoint x="479.5" y="842" />
            </Array>
          </mxGeometry>
        </mxCell>
        <mxCell id="gd8OF8IGJQvcCedGKsRl-32" value="Bateau" style="swimlane;fontStyle=1;align=center;verticalAlign=top;childLayout=stackLayout;horizontal=1;startSize=26;horizontalStack=0;resizeParent=1;resizeParentMax=0;resizeLast=0;collapsible=1;marginBottom=0;" vertex="1" parent="1">
          <mxGeometry x="160" y="852" width="160" height="174" as="geometry" />
        </mxCell>
        <mxCell id="gd8OF8IGJQvcCedGKsRl-33" value="- taille : double" style="text;strokeColor=none;fillColor=none;align=left;verticalAlign=top;spacingLeft=4;spacingRight=4;overflow=hidden;rotatable=0;points=[[0,0.5],[1,0.5]];portConstraint=eastwest;horizontal=1;treeFolding=0;treeMoving=0;enumerate=0;comic=0;part=0;dropTarget=0;autosize=0;html=1;perimeter=rectanglePerimeter;" vertex="1" parent="gd8OF8IGJQvcCedGKsRl-32">
          <mxGeometry y="26" width="160" height="34" as="geometry" />
        </mxCell>
        <mxCell id="gd8OF8IGJQvcCedGKsRl-34" value="- pavillon : String" style="text;strokeColor=none;fillColor=none;align=left;verticalAlign=top;spacingLeft=4;spacingRight=4;overflow=hidden;rotatable=0;points=[[0,0.5],[1,0.5]];portConstraint=eastwest;horizontal=1;treeFolding=0;treeMoving=0;enumerate=0;comic=0;part=0;dropTarget=0;autosize=0;html=1;perimeter=rectanglePerimeter;" vertex="1" parent="gd8OF8IGJQvcCedGKsRl-32">
          <mxGeometry y="60" width="160" height="34" as="geometry" />
        </mxCell>
        <mxCell id="gd8OF8IGJQvcCedGKsRl-35" value="-capitaine : String" style="text;strokeColor=none;fillColor=none;align=left;verticalAlign=top;spacingLeft=4;spacingRight=4;overflow=hidden;rotatable=0;points=[[0,0.5],[1,0.5]];portConstraint=eastwest;horizontal=1;treeFolding=0;treeMoving=0;enumerate=0;comic=0;part=0;dropTarget=0;autosize=0;html=1;perimeter=rectanglePerimeter;" vertex="1" parent="gd8OF8IGJQvcCedGKsRl-32">
          <mxGeometry y="94" width="160" height="34" as="geometry" />
        </mxCell>
        <mxCell id="gd8OF8IGJQvcCedGKsRl-36" value="" style="line;strokeWidth=1;fillColor=none;align=left;verticalAlign=middle;spacingTop=-1;spacingLeft=3;spacingRight=3;rotatable=0;labelPosition=right;points=[];portConstraint=eastwest;" vertex="1" parent="gd8OF8IGJQvcCedGKsRl-32">
          <mxGeometry y="128" width="160" height="8" as="geometry" />
        </mxCell>
        <mxCell id="gd8OF8IGJQvcCedGKsRl-37" value="+Bateau()" style="text;strokeColor=none;fillColor=none;align=left;verticalAlign=top;spacingLeft=4;spacingRight=4;overflow=hidden;rotatable=0;points=[[0,0.5],[1,0.5]];portConstraint=eastwest;" vertex="1" parent="gd8OF8IGJQvcCedGKsRl-32">
          <mxGeometry y="136" width="160" height="38" as="geometry" />
        </mxCell>
        <mxCell id="gd8OF8IGJQvcCedGKsRl-38" value="Entreprise" style="swimlane;fontStyle=1;align=center;verticalAlign=top;childLayout=stackLayout;horizontal=1;startSize=26;horizontalStack=0;resizeParent=1;resizeParentMax=0;resizeLast=0;collapsible=1;marginBottom=0;" vertex="1" parent="1">
          <mxGeometry x="-20" y="852" width="160" height="140" as="geometry" />
        </mxCell>
        <mxCell id="gd8OF8IGJQvcCedGKsRl-39" value="- nomEntreprise : String" style="text;strokeColor=none;fillColor=none;align=left;verticalAlign=top;spacingLeft=4;spacingRight=4;overflow=hidden;rotatable=0;points=[[0,0.5],[1,0.5]];portConstraint=eastwest;horizontal=1;treeFolding=0;treeMoving=0;enumerate=0;comic=0;part=0;dropTarget=0;autosize=0;html=1;perimeter=rectanglePerimeter;" vertex="1" parent="gd8OF8IGJQvcCedGKsRl-38">
          <mxGeometry y="26" width="160" height="34" as="geometry" />
        </mxCell>
        <mxCell id="gd8OF8IGJQvcCedGKsRl-40" value="- numImmatriculation : int" style="text;strokeColor=none;fillColor=none;align=left;verticalAlign=top;spacingLeft=4;spacingRight=4;overflow=hidden;rotatable=0;points=[[0,0.5],[1,0.5]];portConstraint=eastwest;horizontal=1;treeFolding=0;treeMoving=0;enumerate=0;comic=0;part=0;dropTarget=0;autosize=0;html=1;perimeter=rectanglePerimeter;" vertex="1" parent="gd8OF8IGJQvcCedGKsRl-38">
          <mxGeometry y="60" width="160" height="34" as="geometry" />
        </mxCell>
        <mxCell id="gd8OF8IGJQvcCedGKsRl-41" value="" style="line;strokeWidth=1;fillColor=none;align=left;verticalAlign=middle;spacingTop=-1;spacingLeft=3;spacingRight=3;rotatable=0;labelPosition=right;points=[];portConstraint=eastwest;" vertex="1" parent="gd8OF8IGJQvcCedGKsRl-38">
          <mxGeometry y="94" width="160" height="8" as="geometry" />
        </mxCell>
        <mxCell id="gd8OF8IGJQvcCedGKsRl-42" value="+Entreprise()" style="text;strokeColor=none;fillColor=none;align=left;verticalAlign=top;spacingLeft=4;spacingRight=4;overflow=hidden;rotatable=0;points=[[0,0.5],[1,0.5]];portConstraint=eastwest;" vertex="1" parent="gd8OF8IGJQvcCedGKsRl-38">
          <mxGeometry y="102" width="160" height="38" as="geometry" />
        </mxCell>
        <mxCell id="gd8OF8IGJQvcCedGKsRl-43" value="Commerçant" style="swimlane;fontStyle=1;align=center;verticalAlign=top;childLayout=stackLayout;horizontal=1;startSize=26;horizontalStack=0;resizeParent=1;resizeParentMax=0;resizeLast=0;collapsible=1;marginBottom=0;labelBackgroundColor=#FFFFFF;fontFamily=Helvetica;fontSize=12;fontColor=default;fillColor=none;gradientColor=none;" vertex="1" parent="1">
          <mxGeometry x="920" y="852" width="160" height="140" as="geometry" />
        </mxCell>
        <mxCell id="gd8OF8IGJQvcCedGKsRl-44" value="- activité : String" style="text;strokeColor=none;fillColor=none;align=left;verticalAlign=top;spacingLeft=4;spacingRight=4;overflow=hidden;rotatable=0;points=[[0,0.5],[1,0.5]];portConstraint=eastwest;labelBackgroundColor=#FFFFFF;fontFamily=Helvetica;fontSize=12;fontColor=default;" vertex="1" parent="gd8OF8IGJQvcCedGKsRl-43">
          <mxGeometry y="26" width="160" height="26" as="geometry" />
        </mxCell>
        <mxCell id="gd8OF8IGJQvcCedGKsRl-45" value="" style="line;strokeWidth=1;fillColor=none;align=left;verticalAlign=middle;spacingTop=-1;spacingLeft=3;spacingRight=3;rotatable=0;labelPosition=right;points=[];portConstraint=eastwest;labelBackgroundColor=#FFFFFF;fontFamily=Helvetica;fontSize=12;fontColor=default;" vertex="1" parent="gd8OF8IGJQvcCedGKsRl-43">
          <mxGeometry y="52" width="160" height="8" as="geometry" />
        </mxCell>
        <mxCell id="gd8OF8IGJQvcCedGKsRl-46" value="+ Commerçant()" style="text;strokeColor=none;fillColor=none;align=left;verticalAlign=top;spacingLeft=4;spacingRight=4;overflow=hidden;rotatable=0;points=[[0,0.5],[1,0.5]];portConstraint=eastwest;labelBackgroundColor=#FFFFFF;fontFamily=Helvetica;fontSize=12;fontColor=default;" vertex="1" parent="gd8OF8IGJQvcCedGKsRl-43">
          <mxGeometry y="60" width="160" height="80" as="geometry" />
        </mxCell>
        <mxCell id="gd8OF8IGJQvcCedGKsRl-47" value="" style="endArrow=block;endSize=10;endFill=0;shadow=0;strokeWidth=1;rounded=0;edgeStyle=elbowEdgeStyle;elbow=vertical;exitX=0.5;exitY=0;exitDx=0;exitDy=0;entryX=0.5;entryY=1;entryDx=0;entryDy=0;" edge="1" parent="1" source="gd8OF8IGJQvcCedGKsRl-43" target="gd8OF8IGJQvcCedGKsRl-2">
          <mxGeometry width="160" relative="1" as="geometry">
            <mxPoint x="1000" y="848" as="sourcePoint" />
            <mxPoint x="250" y="768" as="targetPoint" />
            <Array as="points">
              <mxPoint x="730" y="822" />
              <mxPoint x="579.5" y="798" />
              <mxPoint x="619.5" y="808" />
              <mxPoint x="679.5" y="838" />
            </Array>
          </mxGeometry>
        </mxCell>
        <mxCell id="gd8OF8IGJQvcCedGKsRl-48" value="" style="endArrow=block;endSize=10;endFill=0;shadow=0;strokeWidth=1;rounded=0;edgeStyle=elbowEdgeStyle;elbow=vertical;exitX=0.5;exitY=0;exitDx=0;exitDy=0;entryX=0.5;entryY=1;entryDx=0;entryDy=0;" edge="1" parent="1" source="gd8OF8IGJQvcCedGKsRl-16" target="gd8OF8IGJQvcCedGKsRl-2">
          <mxGeometry width="160" relative="1" as="geometry">
            <mxPoint x="1010" y="858" as="sourcePoint" />
            <mxPoint x="290" y="792" as="targetPoint" />
            <Array as="points">
              <mxPoint x="450" y="822" />
              <mxPoint x="589.5" y="808" />
              <mxPoint x="629.5" y="818" />
              <mxPoint x="689.5" y="848" />
            </Array>
          </mxGeometry>
        </mxCell>
        <mxCell id="gd8OF8IGJQvcCedGKsRl-49" value="Est un" style="endArrow=open;html=1;endSize=12;startArrow=diamondThin;startSize=14;startFill=0;edgeStyle=orthogonalEdgeStyle;rounded=0;fontFamily=Helvetica;fontSize=12;fontColor=default;entryX=0.998;entryY=0.644;entryDx=0;entryDy=0;entryPerimeter=0;exitX=0;exitY=0.644;exitDx=0;exitDy=0;exitPerimeter=0;" edge="1" parent="1" source="gd8OF8IGJQvcCedGKsRl-14" target="gd8OF8IGJQvcCedGKsRl-6">
          <mxGeometry relative="1" as="geometry">
            <mxPoint x="610" y="642" as="sourcePoint" />
            <mxPoint x="419.98" y="664" as="targetPoint" />
            <Array as="points">
              <mxPoint x="590" y="661" />
              <mxPoint x="499" y="662" />
            </Array>
          </mxGeometry>
        </mxCell>
        <mxCell id="gd8OF8IGJQvcCedGKsRl-50" value="1" style="edgeLabel;resizable=0;html=1;align=left;verticalAlign=top;labelBackgroundColor=#FFFFFF;comic=0;fontFamily=Helvetica;fontSize=12;fontColor=default;fillColor=none;gradientColor=none;" connectable="0" vertex="1" parent="gd8OF8IGJQvcCedGKsRl-49">
          <mxGeometry x="-1" relative="1" as="geometry">
            <mxPoint x="-20" y="1" as="offset" />
          </mxGeometry>
        </mxCell>
        <mxCell id="gd8OF8IGJQvcCedGKsRl-51" value="1" style="edgeLabel;resizable=0;html=1;align=right;verticalAlign=top;labelBackgroundColor=#FFFFFF;comic=0;fontFamily=Helvetica;fontSize=12;fontColor=default;fillColor=none;gradientColor=none;" connectable="0" vertex="1" parent="gd8OF8IGJQvcCedGKsRl-49">
          <mxGeometry x="1" relative="1" as="geometry">
            <mxPoint x="18" as="offset" />
          </mxGeometry>
        </mxCell>
        <mxCell id="gd8OF8IGJQvcCedGKsRl-52" style="edgeStyle=orthogonalEdgeStyle;rounded=0;orthogonalLoop=1;jettySize=auto;html=1;entryX=0;entryY=0.75;entryDx=0;entryDy=0;fontFamily=Helvetica;fontSize=12;fontColor=default;" edge="1" parent="1" source="gd8OF8IGJQvcCedGKsRl-55" target="gd8OF8IGJQvcCedGKsRl-2">
          <mxGeometry relative="1" as="geometry" />
        </mxCell>
        <mxCell id="gd8OF8IGJQvcCedGKsRl-53" style="edgeStyle=orthogonalEdgeStyle;rounded=0;orthogonalLoop=1;jettySize=auto;html=1;entryX=0.5;entryY=0;entryDx=0;entryDy=0;fontFamily=Helvetica;fontSize=12;fontColor=default;" edge="1" parent="1" source="gd8OF8IGJQvcCedGKsRl-55" target="gd8OF8IGJQvcCedGKsRl-65">
          <mxGeometry relative="1" as="geometry" />
        </mxCell>
        <mxCell id="gd8OF8IGJQvcCedGKsRl-54" style="edgeStyle=orthogonalEdgeStyle;rounded=0;orthogonalLoop=1;jettySize=auto;html=1;fontFamily=Helvetica;fontSize=12;fontColor=default;" edge="1" parent="1" source="gd8OF8IGJQvcCedGKsRl-55" target="gd8OF8IGJQvcCedGKsRl-71">
          <mxGeometry relative="1" as="geometry" />
        </mxCell>
        <mxCell id="gd8OF8IGJQvcCedGKsRl-55" value="Organisateur" style="swimlane;fontStyle=1;align=center;verticalAlign=top;childLayout=stackLayout;horizontal=1;startSize=26;horizontalStack=0;resizeParent=1;resizeParentMax=0;resizeLast=0;collapsible=1;marginBottom=0;" vertex="1" parent="1">
          <mxGeometry x="-210" y="552" width="160" height="330" as="geometry" />
        </mxCell>
        <mxCell id="gd8OF8IGJQvcCedGKsRl-56" value="- taille : double" style="text;strokeColor=none;fillColor=none;align=left;verticalAlign=top;spacingLeft=4;spacingRight=4;overflow=hidden;rotatable=0;points=[[0,0.5],[1,0.5]];portConstraint=eastwest;horizontal=1;treeFolding=0;treeMoving=0;enumerate=0;comic=0;part=0;dropTarget=0;autosize=0;html=1;perimeter=rectanglePerimeter;" vertex="1" parent="gd8OF8IGJQvcCedGKsRl-55">
          <mxGeometry y="26" width="160" height="34" as="geometry" />
        </mxCell>
        <mxCell id="gd8OF8IGJQvcCedGKsRl-57" value="- pavillon : String" style="text;strokeColor=none;fillColor=none;align=left;verticalAlign=top;spacingLeft=4;spacingRight=4;overflow=hidden;rotatable=0;points=[[0,0.5],[1,0.5]];portConstraint=eastwest;horizontal=1;treeFolding=0;treeMoving=0;enumerate=0;comic=0;part=0;dropTarget=0;autosize=0;html=1;perimeter=rectanglePerimeter;" vertex="1" parent="gd8OF8IGJQvcCedGKsRl-55">
          <mxGeometry y="60" width="160" height="34" as="geometry" />
        </mxCell>
        <mxCell id="gd8OF8IGJQvcCedGKsRl-58" value="" style="line;strokeWidth=1;fillColor=none;align=left;verticalAlign=middle;spacingTop=-1;spacingLeft=3;spacingRight=3;rotatable=0;labelPosition=right;points=[];portConstraint=eastwest;" vertex="1" parent="gd8OF8IGJQvcCedGKsRl-55">
          <mxGeometry y="94" width="160" height="8" as="geometry" />
        </mxCell>
        <mxCell id="gd8OF8IGJQvcCedGKsRl-59" value="+ Organisateur()" style="text;strokeColor=none;fillColor=none;align=left;verticalAlign=top;spacingLeft=4;spacingRight=4;overflow=hidden;rotatable=0;points=[[0,0.5],[1,0.5]];portConstraint=eastwest;" vertex="1" parent="gd8OF8IGJQvcCedGKsRl-55">
          <mxGeometry y="102" width="160" height="38" as="geometry" />
        </mxCell>
        <mxCell id="gd8OF8IGJQvcCedGKsRl-60" value="+ supprimerParticipant()" style="text;strokeColor=none;fillColor=none;align=left;verticalAlign=top;spacingLeft=4;spacingRight=4;overflow=hidden;rotatable=0;points=[[0,0.5],[1,0.5]];portConstraint=eastwest;" vertex="1" parent="gd8OF8IGJQvcCedGKsRl-55">
          <mxGeometry y="140" width="160" height="38" as="geometry" />
        </mxCell>
        <mxCell id="gd8OF8IGJQvcCedGKsRl-61" value="+ validerInscription()" style="text;strokeColor=none;fillColor=none;align=left;verticalAlign=top;spacingLeft=4;spacingRight=4;overflow=hidden;rotatable=0;points=[[0,0.5],[1,0.5]];portConstraint=eastwest;" vertex="1" parent="gd8OF8IGJQvcCedGKsRl-55">
          <mxGeometry y="178" width="160" height="38" as="geometry" />
        </mxCell>
        <mxCell id="gd8OF8IGJQvcCedGKsRl-62" value="+modifierCaractéristique()" style="text;strokeColor=none;fillColor=none;align=left;verticalAlign=top;spacingLeft=4;spacingRight=4;overflow=hidden;rotatable=0;points=[[0,0.5],[1,0.5]];portConstraint=eastwest;" vertex="1" parent="gd8OF8IGJQvcCedGKsRl-55">
          <mxGeometry y="216" width="160" height="38" as="geometry" />
        </mxCell>
        <mxCell id="gd8OF8IGJQvcCedGKsRl-63" value="+supprimerParticipant()" style="text;strokeColor=none;fillColor=none;align=left;verticalAlign=top;spacingLeft=4;spacingRight=4;overflow=hidden;rotatable=0;points=[[0,0.5],[1,0.5]];portConstraint=eastwest;" vertex="1" parent="gd8OF8IGJQvcCedGKsRl-55">
          <mxGeometry y="254" width="160" height="38" as="geometry" />
        </mxCell>
        <mxCell id="gd8OF8IGJQvcCedGKsRl-64" value="+créerCompte()" style="text;strokeColor=none;fillColor=none;align=left;verticalAlign=top;spacingLeft=4;spacingRight=4;overflow=hidden;rotatable=0;points=[[0,0.5],[1,0.5]];portConstraint=eastwest;" vertex="1" parent="gd8OF8IGJQvcCedGKsRl-55">
          <mxGeometry y="292" width="160" height="38" as="geometry" />
        </mxCell>
        <mxCell id="gd8OF8IGJQvcCedGKsRl-65" value="Inscription" style="swimlane;fontStyle=1;align=center;verticalAlign=top;childLayout=stackLayout;horizontal=1;startSize=26;horizontalStack=0;resizeParent=1;resizeParentMax=0;resizeLast=0;collapsible=1;marginBottom=0;" vertex="1" parent="1">
          <mxGeometry x="-330" y="980" width="160" height="178" as="geometry" />
        </mxCell>
        <mxCell id="gd8OF8IGJQvcCedGKsRl-66" value="- profil : String" style="text;strokeColor=none;fillColor=none;align=left;verticalAlign=top;spacingLeft=4;spacingRight=4;overflow=hidden;rotatable=0;points=[[0,0.5],[1,0.5]];portConstraint=eastwest;horizontal=1;treeFolding=0;treeMoving=0;enumerate=0;comic=0;part=0;dropTarget=0;autosize=0;html=1;perimeter=rectanglePerimeter;" vertex="1" parent="gd8OF8IGJQvcCedGKsRl-65">
          <mxGeometry y="26" width="160" height="34" as="geometry" />
        </mxCell>
        <mxCell id="gd8OF8IGJQvcCedGKsRl-67" value="- nom : String" style="text;strokeColor=none;fillColor=none;align=left;verticalAlign=top;spacingLeft=4;spacingRight=4;overflow=hidden;rotatable=0;points=[[0,0.5],[1,0.5]];portConstraint=eastwest;horizontal=1;treeFolding=0;treeMoving=0;enumerate=0;comic=0;part=0;dropTarget=0;autosize=0;html=1;perimeter=rectanglePerimeter;" vertex="1" parent="gd8OF8IGJQvcCedGKsRl-65">
          <mxGeometry y="60" width="160" height="34" as="geometry" />
        </mxCell>
        <mxCell id="gd8OF8IGJQvcCedGKsRl-68" value="" style="line;strokeWidth=1;fillColor=none;align=left;verticalAlign=middle;spacingTop=-1;spacingLeft=3;spacingRight=3;rotatable=0;labelPosition=right;points=[];portConstraint=eastwest;" vertex="1" parent="gd8OF8IGJQvcCedGKsRl-65">
          <mxGeometry y="94" width="160" height="8" as="geometry" />
        </mxCell>
        <mxCell id="gd8OF8IGJQvcCedGKsRl-69" value="+Inscription()" style="text;strokeColor=none;fillColor=none;align=left;verticalAlign=top;spacingLeft=4;spacingRight=4;overflow=hidden;rotatable=0;points=[[0,0.5],[1,0.5]];portConstraint=eastwest;" vertex="1" parent="gd8OF8IGJQvcCedGKsRl-65">
          <mxGeometry y="102" width="160" height="38" as="geometry" />
        </mxCell>
        <mxCell id="gd8OF8IGJQvcCedGKsRl-70" value="+soumettreInscription" style="text;strokeColor=none;fillColor=none;align=left;verticalAlign=top;spacingLeft=4;spacingRight=4;overflow=hidden;rotatable=0;points=[[0,0.5],[1,0.5]];portConstraint=eastwest;" vertex="1" parent="gd8OF8IGJQvcCedGKsRl-65">
          <mxGeometry y="140" width="160" height="38" as="geometry" />
        </mxCell>
        <mxCell id="gd8OF8IGJQvcCedGKsRl-71" value="Compte" style="swimlane;fontStyle=1;align=center;verticalAlign=top;childLayout=stackLayout;horizontal=1;startSize=26;horizontalStack=0;resizeParent=1;resizeParentMax=0;resizeLast=0;collapsible=1;marginBottom=0;" vertex="1" parent="1">
          <mxGeometry x="-110" y="1050" width="160" height="224" as="geometry" />
        </mxCell>
        <mxCell id="gd8OF8IGJQvcCedGKsRl-72" value="-identifiant : String" style="text;strokeColor=none;fillColor=none;align=left;verticalAlign=top;spacingLeft=4;spacingRight=4;overflow=hidden;rotatable=0;points=[[0,0.5],[1,0.5]];portConstraint=eastwest;" vertex="1" parent="gd8OF8IGJQvcCedGKsRl-71">
          <mxGeometry y="26" width="160" height="34" as="geometry" />
        </mxCell>
        <mxCell id="gd8OF8IGJQvcCedGKsRl-73" value="-motDePasse : String" style="text;strokeColor=none;fillColor=none;align=left;verticalAlign=top;spacingLeft=4;spacingRight=4;overflow=hidden;rotatable=0;points=[[0,0.5],[1,0.5]];portConstraint=eastwest;" vertex="1" parent="gd8OF8IGJQvcCedGKsRl-71">
          <mxGeometry y="60" width="160" height="34" as="geometry" />
        </mxCell>
        <mxCell id="gd8OF8IGJQvcCedGKsRl-74" value="" style="line;strokeWidth=1;fillColor=none;align=left;verticalAlign=middle;spacingTop=-1;spacingLeft=3;spacingRight=3;rotatable=0;labelPosition=right;points=[];portConstraint=eastwest;" vertex="1" parent="gd8OF8IGJQvcCedGKsRl-71">
          <mxGeometry y="94" width="160" height="8" as="geometry" />
        </mxCell>
        <mxCell id="gd8OF8IGJQvcCedGKsRl-75" value="+supprimerCompte()" style="text;strokeColor=none;fillColor=none;align=left;verticalAlign=top;spacingLeft=4;spacingRight=4;overflow=hidden;rotatable=0;points=[[0,0.5],[1,0.5]];portConstraint=eastwest;" vertex="1" parent="gd8OF8IGJQvcCedGKsRl-71">
          <mxGeometry y="102" width="160" height="32" as="geometry" />
        </mxCell>
        <mxCell id="gd8OF8IGJQvcCedGKsRl-76" value="+connexionCompte()" style="text;strokeColor=none;fillColor=none;align=left;verticalAlign=top;spacingLeft=4;spacingRight=4;overflow=hidden;rotatable=0;points=[[0,0.5],[1,0.5]];portConstraint=eastwest;" vertex="1" parent="gd8OF8IGJQvcCedGKsRl-71">
          <mxGeometry y="134" width="160" height="30" as="geometry" />
        </mxCell>
        <mxCell id="gd8OF8IGJQvcCedGKsRl-77" value="+modifierCompte()" style="text;strokeColor=none;fillColor=none;align=left;verticalAlign=top;spacingLeft=4;spacingRight=4;overflow=hidden;rotatable=0;points=[[0,0.5],[1,0.5]];portConstraint=eastwest;" vertex="1" parent="gd8OF8IGJQvcCedGKsRl-71">
          <mxGeometry y="164" width="160" height="30" as="geometry" />
        </mxCell>
        <mxCell id="gd8OF8IGJQvcCedGKsRl-78" value="+deconnexionCompte()" style="text;strokeColor=none;fillColor=none;align=left;verticalAlign=top;spacingLeft=4;spacingRight=4;overflow=hidden;rotatable=0;points=[[0,0.5],[1,0.5]];portConstraint=eastwest;" vertex="1" parent="gd8OF8IGJQvcCedGKsRl-71">
          <mxGeometry y="194" width="160" height="30" as="geometry" />
        </mxCell>
      </root>
    </mxGraphModel>
  </diagram>
</mxfile>
